<?xml version="1.0" encoding="utf-8"?>
<!-- Generator: Adobe Illustrator 26.2.1, SVG Export Plug-In . SVG Version: 6.00 Build 0)  -->
<svg version="1.1" id="Layer_1" xmlns="http://www.w3.org/2000/svg" xmlns:xlink="http://www.w3.org/1999/xlink" x="0px" y="0px"
	 viewBox="0 0 76 76" style="enable-background:new 0 0 76 76;" xml:space="preserve">
<style type="text/css">
	.st0{fill:#00C597;}
</style>
<path class="st0" d="M8.6,37c3.9-0.1,6.8-3.6,6.8-8.5v-9.1c0-7.5,6.2-11.2,13.7-11.4v6.8c-3.9,0.1-6.8,2-6.8,6.8v8.5
	c0,5.2-2.6,9.4-5.9,10.2c3.5,0.9,5.9,5.2,5.9,10.2v8.5c0,4.8,2.9,6.6,6.8,6.8v7.1c-7.5-0.1-13.7-3.7-13.7-11.4v-9.1
	c0-4.9-2.9-8.4-6.8-8.5V37z M70,37v6.8c-3.9,0.1-6.8,3.6-6.8,8.5v9.1c0,7.5-6.2,11.2-13.7,11.4V66c3.9-0.1,6.8-2,6.8-6.8v-8.5
	c0-5.2,2.6-9.4,5.9-10.2c-3.5-0.9-5.9-5.2-5.9-10.2v-8.5c0-4.8-2.9-6.6-6.8-6.8V8.1c7.5,0.1,13.7,3.7,13.7,11.4v9.1
	C63.2,33.4,66.1,36.9,70,37z"/>
</svg>
